<svg width="192" height="192" viewBox="0 0 192 192" fill="none" xmlns="http://www.w3.org/2000/svg">
<path d="M50.6121 148C42.4576 148 35.2193 147.212 28.8973 145.637C22.5753 144.062 16.2762 141.096 10 136.741V110.469H28.6225L30.684 123.952C32.15 125.62 34.7383 127.034 38.4491 128.192C42.1598 129.304 46.2141 129.86 50.6121 129.86C59.9118 129.86 64.5617 126.57 64.5617 119.991C64.5617 116.979 63.4164 114.431 61.1259 112.346C58.8353 110.214 54.8496 108.036 49.169 105.812C40.6022 103.032 33.5701 100.206 28.0727 97.3332C22.5753 94.4604 18.4752 91.0548 15.7723 87.1164C13.1152 83.178 11.7867 78.2897 11.7867 72.4515C11.7867 66.845 13.3672 61.9567 16.5282 57.7866C19.6892 53.5702 24.0413 50.2573 29.5845 47.8479C35.1277 45.4385 41.4726 44.1643 48.6193 44.0253C56.7737 43.8399 63.9891 44.674 70.2653 46.5273C76.5415 48.3344 82.0847 51.0913 86.8949 54.7981V79.1932H69.0284L66.2109 65.6403C64.6533 64.8527 62.4315 64.1345 59.5453 63.4858C56.6592 62.8371 53.5898 62.5128 50.3372 62.5128C46.1683 62.5128 42.7095 63.3468 39.9608 65.0148C37.2121 66.6829 35.8378 69.1849 35.8378 72.521C35.8378 74.3281 36.3646 75.9498 37.4183 77.3861C38.472 78.7762 40.3273 80.1894 42.9844 81.6258C45.6415 83.0158 49.3522 84.6375 54.1167 86.4909C65.478 89.8733 74.0906 94.1129 79.9545 99.2097C85.8642 104.26 88.819 111.141 88.819 119.852C88.819 125.829 87.2156 130.926 84.0088 135.142C80.802 139.312 76.3353 142.509 70.6089 144.733C64.8824 146.911 58.2168 148 50.6121 148Z" fill="black"/>
<path d="M94.2477 146.54V132.293L104.624 130.069V61.8872L94.2477 59.6632V45.3458H142.9C150.871 45.3458 157.789 46.759 163.652 49.5854C169.516 52.4118 174.029 56.3503 177.19 61.4007C180.397 66.4049 182 72.243 182 78.9152C182 85.5874 180.397 91.4255 177.19 96.4296C174.029 101.434 169.516 105.326 163.652 108.106C157.789 110.886 150.871 112.276 142.9 112.276H128.744V130.069L139.12 132.293V146.54H94.2477ZM128.744 93.5801H142.9C147.802 93.5801 151.512 92.2364 154.032 89.549C156.597 86.8152 157.88 83.317 157.88 79.0542C157.88 74.6524 156.597 71.0383 154.032 68.2119C151.512 65.3855 147.802 63.9723 142.9 63.9723H128.744V93.5801Z" fill="black"/>
</svg>
